<svg xmlns="http://www.w3.org/2000/svg" viewBox="0 0 900 620" role="img" aria-labelledby="t d"><title id="t">Arab girls in tech community illustration</title><desc id="d">A friendly community illustration with stars, laptops, and connected members.</desc><defs><linearGradient id="g" x1="0" x2="1" y1="0" y2="1"><stop stop-color="#7c3aed"/><stop offset="1" stop-color="#ec4899"/></linearGradient><filter id="s"><feDropShadow dx="0" dy="18" stdDeviation="18" flood-opacity=".2"/></filter></defs><rect width="900" height="620" rx="42" fill="#f7efff"/><circle cx="723" cy="142" r="98" fill="#ffe0f0"/><circle cx="190" cy="469" r="112" fill="#eadcff"/><g filter="url(#s)"><rect x="190" y="145" width="520" height="335" rx="50" fill="#fff"/><circle cx="450" cy="251" r="70" fill="url(#g)"/><circle cx="450" cy="232" r="24" fill="#fff" opacity=".9"/><path d="M397 298c24-50 82-50 106 0" fill="#fff" opacity=".9"/><circle cx="285" cy="343" r="50" fill="#ffd6e8"/><circle cx="615" cy="343" r="50" fill="#eadcff"/><circle cx="450" cy="386" r="48" fill="#ffd6e8"/><path d="M332 326l71-45M568 326l-71-45M338 364l70 24M562 364l-68 24" stroke="#c084fc" stroke-width="10" stroke-linecap="round"/><path d="M265 345l17 17 33-43M594 348h42M429 386h43M451 365v43" stroke="#7c3aed" stroke-width="11" stroke-linecap="round" stroke-linejoin="round" fill="none"/></g><path d="M123 165l16 34 36 5-26 25 6 36-32-17-32 17 6-36-26-25 36-5zM753 407l12 25 27 4-20 19 5 27-24-13-24 13 5-27-20-19 27-4z" fill="#f472b6" opacity=".7"/></svg>
