<svg xmlns="http://www.w3.org/2000/svg" viewBox="0 0 900 620" role="img" aria-labelledby="t d"><title id="t">Technology tracks illustration</title><desc id="d">Four separate study tracks for cybersecurity, data analysis, artificial intelligence, and machine learning.</desc><defs><linearGradient id="g" x1="0" x2="1" y1="0" y2="1"><stop stop-color="#6d28d9"/><stop offset="1" stop-color="#ec4899"/></linearGradient><filter id="s"><feDropShadow dx="0" dy="16" stdDeviation="15" flood-opacity=".18"/></filter></defs><rect width="900" height="620" rx="42" fill="#fbf7ff"/><path d="M30 120c126 60 226 36 300-37 109-108 237-90 330 8 73 77 132 81 210 49v443H30z" fill="#eadcff"/><g filter="url(#s)"><rect x="113" y="122" width="289" height="178" rx="34" fill="#fff"/><rect x="497" y="122" width="289" height="178" rx="34" fill="#fff"/><rect x="113" y="333" width="289" height="178" rx="34" fill="#fff"/><rect x="497" y="333" width="289" height="178" rx="34" fill="#fff"/></g><g fill="none" stroke="url(#g)" stroke-width="18" stroke-linecap="round" stroke-linejoin="round"><path d="M218 210v-28h78v28M202 210h110v62H202z"/><path d="M612 192h68M612 232h103M612 272h48"/><path d="M228 417l24 24 48-57M217 469h100"/><path d="M610 438c20-58 91-58 111 0M616 438h99M666 379v109M631 410l70 56M701 410l-70 56"/></g><g fill="#2a164c" font-family="Arial, sans-serif" font-size="28" font-weight="700"><text x="184" y="271">Cybersecurity</text><text x="586" y="271">Data Analysis</text><text x="210" y="483">AI</text><text x="563" y="483">Machine Learning</text></g></svg>
