<svg xmlns="http://www.w3.org/2000/svg" viewBox="0 0 900 620" role="img" aria-labelledby="t d"><title id="t">LinkedIn and CV improvement illustration</title><desc id="d">A laptop showing a professional profile and a CV document with check marks.</desc><defs><linearGradient id="g" x1="0" x2="1" y1="0" y2="1"><stop stop-color="#7c3aed"/><stop offset="1" stop-color="#ec4899"/></linearGradient><filter id="s" x="-20%" y="-20%" width="140%" height="140%"><feDropShadow dx="0" dy="18" stdDeviation="18" flood-color="#35135f" flood-opacity=".22"/></filter></defs><rect width="900" height="620" rx="42" fill="#f6f0ff"/><circle cx="92" cy="96" r="62" fill="#eadcff"/><circle cx="797" cy="132" r="86" fill="#ffe0f0"/><path d="M101 478c84-126 200-149 330-83 124 62 221 47 311-55 31-34 90-6 80 39-20 88-92 161-204 190-153 39-366 11-517-91z" fill="#eadcff"/><g filter="url(#s)"><rect x="126" y="157" width="497" height="321" rx="28" fill="#21143a"/><rect x="154" y="190" width="441" height="248" rx="16" fill="#fff"/><rect x="198" y="243" width="118" height="118" rx="22" fill="url(#g)"/><circle cx="257" cy="286" r="26" fill="#fff" opacity=".88"/><path d="M214 343c22-35 65-35 87 0" fill="#fff" opacity=".88"/><rect x="348" y="246" width="196" height="22" rx="11" fill="#24133e" opacity=".88"/><rect x="348" y="292" width="158" height="18" rx="9" fill="#8b5cf6" opacity=".5"/><rect x="348" y="329" width="205" height="18" rx="9" fill="#8b5cf6" opacity=".25"/><rect x="197" y="392" width="345" height="18" rx="9" fill="#8b5cf6" opacity=".18"/></g><g filter="url(#s)"><rect x="586" y="215" width="200" height="278" rx="22" fill="#fff"/><rect x="624" y="260" width="123" height="20" rx="10" fill="#24133e"/><rect x="624" y="305" width="88" height="14" rx="7" fill="#c084fc"/><rect x="624" y="337" width="121" height="14" rx="7" fill="#c084fc" opacity=".65"/><rect x="624" y="369" width="96" height="14" rx="7" fill="#c084fc" opacity=".5"/><path d="M626 423l25 25 58-67" fill="none" stroke="#22c55e" stroke-width="16" stroke-linecap="round" stroke-linejoin="round"/></g></svg>
