<svg xmlns="http://www.w3.org/2000/svg" viewBox="0 0 900 620" role="img" aria-labelledby="t d"><title id="t">Mentorship and guidance illustration</title><desc id="d">Three young women connected by chat bubbles and learning goals.</desc><defs><linearGradient id="a" x1="0" x2="1"><stop stop-color="#6d28d9"/><stop offset="1" stop-color="#db2777"/></linearGradient><filter id="s"><feDropShadow dx="0" dy="16" stdDeviation="16" flood-opacity=".18"/></filter></defs><rect width="900" height="620" rx="42" fill="#fff4fb"/><path d="M82 378c93-205 298-279 520-210 109 34 179 10 236-45v400H82z" fill="#f0dcff"/><g filter="url(#s)"><rect x="85" y="102" width="262" height="170" rx="32" fill="#fff"/><rect x="131" y="146" width="156" height="18" rx="9" fill="#2a164c"/><rect x="131" y="187" width="180" height="14" rx="7" fill="#c084fc"/><rect x="131" y="220" width="121" height="14" rx="7" fill="#e879f9" opacity=".65"/><path d="M291 272l34 49-67-49z" fill="#fff"/></g><g filter="url(#s)"><rect x="552" y="91" width="266" height="177" rx="32" fill="#fff"/><rect x="604" y="137" width="163" height="18" rx="9" fill="#2a164c"/><rect x="604" y="178" width="180" height="14" rx="7" fill="#c084fc"/><rect x="604" y="211" width="108" height="14" rx="7" fill="#e879f9" opacity=".65"/><path d="M623 268l-44 49 76-49z" fill="#fff"/></g><g transform="translate(315 225)" filter="url(#s)"><circle cx="135" cy="99" r="89" fill="url(#a)"/><circle cx="135" cy="78" r="31" fill="#fff" opacity=".92"/><path d="M69 171c28-61 104-72 134 0" fill="#fff" opacity=".92"/><rect x="-144" y="196" width="558" height="165" rx="36" fill="#fff"/><circle cx="-56" cy="279" r="44" fill="#ffd6e8"/><circle cx="135" cy="279" r="44" fill="#eadcff"/><circle cx="326" cy="279" r="44" fill="#ffd6e8"/><path d="M-56 269v24m-12-12h24M124 282l16 16 31-42M310 275h32" stroke="#7c3aed" stroke-width="12" stroke-linecap="round" stroke-linejoin="round" fill="none"/></g></svg>
