<svg xmlns="http://www.w3.org/2000/svg" viewBox="0 0 900 620" role="img" aria-labelledby="t d"><title id="t">edX course study sprint illustration</title><desc id="d">A learning dashboard with course modules, progress bars, and certificates.</desc><defs><linearGradient id="b" x1="0" y1="0" x2="1" y2="1"><stop stop-color="#4f46e5"/><stop offset="1" stop-color="#ec4899"/></linearGradient><filter id="s"><feDropShadow dx="0" dy="18" stdDeviation="18" flood-opacity=".2"/></filter></defs><rect width="900" height="620" rx="42" fill="#f5f3ff"/><circle cx="760" cy="448" r="122" fill="#ffe0f0"/><circle cx="172" cy="137" r="92" fill="#eadcff"/><g filter="url(#s)"><rect x="122" y="124" width="620" height="363" rx="34" fill="#24133e"/><rect x="154" y="168" width="556" height="272" rx="20" fill="#fff"/><rect x="198" y="209" width="226" height="37" rx="18" fill="#24133e"/><rect x="198" y="280" width="168" height="18" rx="9" fill="#c084fc"/><rect x="198" y="321" width="333" height="16" rx="8" fill="#ede9fe"/><rect x="198" y="321" width="221" height="16" rx="8" fill="url(#b)"/><rect x="198" y="368" width="333" height="16" rx="8" fill="#ede9fe"/><rect x="198" y="368" width="274" height="16" rx="8" fill="url(#b)"/><rect x="573" y="251" width="93" height="132" rx="18" fill="#fff7ed" stroke="#f9a8d4" stroke-width="5"/><circle cx="620" cy="303" r="26" fill="url(#b)"/><path d="M600 365l20-18 20 18 12-39h-64z" fill="#f472b6"/></g><g filter="url(#s)"><rect x="617" y="403" width="148" height="97" rx="22" fill="#fff"/><path d="M650 452l23 23 49-57" fill="none" stroke="#22c55e" stroke-width="14" stroke-linecap="round" stroke-linejoin="round"/></g></svg>
